<?xml version="1.0" standalone="no"?>
<!DOCTYPE svg PUBLIC "-//W3C//DTD SVG 20010904//EN"
 "http://www.w3.org/TR/2001/REC-SVG-20010904/DTD/svg10.dtd">
<svg version="1.0" xmlns="http://www.w3.org/2000/svg"
 width="700.000000pt" height="700.000000pt" viewBox="0 0 700.000000 700.000000"
 preserveAspectRatio="xMidYMid meet">
<metadata>
Created by potrace 1.14, written by Peter Selinger 2001-2017
</metadata>
<g transform="translate(0.000000,700.000000) scale(0.100000,-0.100000)"
fill="#000000" stroke="none">
<path d="M1120 6820 c-20 -3 -68 -24 -109 -46 -88 -47 -163 -125 -259 -269
-60 -91 -223 -398 -250 -470 -6 -16 -30 -77 -55 -135 -115 -276 -204 -582
-302 -1040 -19 -91 -42 -194 -50 -230 -59 -255 -82 -407 -71 -465 8 -41 41
-60 87 -50 33 8 54 57 64 150 6 58 45 247 139 675 104 473 217 814 381 1155
154 320 280 496 399 555 61 30 69 31 133 25 37 -4 88 -16 113 -25 225 -88 655
-461 951 -825 205 -252 295 -376 477 -660 110 -172 123 -191 227 -360 37 -60
79 -122 93 -137 31 -33 80 -38 105 -10 37 41 25 70 -159 365 -272 435 -433
665 -635 908 -135 161 -465 491 -599 598 -107 86 -263 192 -335 228 -102 52
-256 80 -345 63z"/>
<path d="M5259 6391 c-15 -5 -60 -26 -100 -47 -96 -50 -215 -170 -306 -307
-74 -112 -257 -467 -317 -617 -233 -577 -309 -847 -263 -937 18 -35 53 -48 91
-33 31 12 46 45 46 105 0 48 27 167 58 260 43 128 84 243 109 305 162 416 306
710 425 870 257 344 471 349 703 15 99 -141 216 -354 376 -680 270 -551 491
-1081 704 -1692 30 -84 56 -157 59 -162 7 -11 129 22 133 36 5 15 -58 202
-174 513 -195 523 -393 981 -633 1460 -287 574 -425 769 -615 872 -76 41 -84
43 -175 45 -52 1 -107 -1 -121 -6z"/>
<path d="M2065 3755 c-64 -21 -77 -31 -161 -118 -97 -101 -133 -155 -184 -282
-18 -44 -37 -86 -43 -92 -5 -7 -18 -45 -28 -85 -24 -93 -25 -257 -1 -348 32
-123 142 -250 270 -312 l67 -33 240 0 c238 0 241 0 315 28 261 96 397 319 360
589 -6 45 -22 108 -35 140 -38 93 -152 255 -245 348 -168 168 -369 228 -555
165z m308 -183 c156 -72 347 -326 368 -491 25 -205 -64 -344 -271 -422 -60
-22 -79 -24 -245 -24 -175 0 -181 1 -235 27 -62 31 -138 104 -169 163 -18 35
-21 57 -21 178 0 137 0 139 35 213 19 41 35 78 35 82 0 48 185 277 244 303 12
5 59 7 106 6 70 -3 97 -9 153 -35z"/>
<path d="M2142 3170 c-73 -17 -107 -81 -100 -187 4 -60 7 -68 40 -99 44 -40
105 -51 186 -35 70 14 97 39 118 109 29 102 -5 166 -108 202 -61 21 -83 23
-136 10z"/>
<path d="M4956 3659 c-66 -21 -202 -108 -260 -166 -116 -116 -186 -387 -157
-608 13 -97 45 -224 67 -267 26 -50 118 -114 211 -146 80 -28 287 -38 473 -23
276 21 470 119 552 278 57 109 70 163 67 257 -4 79 -7 90 -66 207 -48 96 -78
141 -133 201 -109 119 -204 177 -387 238 -132 43 -162 50 -230 49 -49 0 -100
-8 -137 -20z m284 -169 c163 -54 216 -85 321 -187 81 -79 102 -106 139 -180
54 -110 62 -172 31 -254 -51 -136 -114 -183 -341 -254 l-85 -26 -200 9 c-229
10 -279 24 -338 93 -76 88 -97 344 -43 511 35 107 77 176 136 221 86 65 195
109 255 103 17 -2 73 -18 125 -36z"/>
<path d="M5090 3111 c-80 -30 -112 -106 -89 -214 14 -69 41 -101 98 -117 138
-38 230 29 231 168 0 78 -15 107 -79 150 -53 36 -90 39 -161 13z"/>
<path d="M5064 1530 c-219 -127 -411 -244 -426 -261 -31 -33 -38 -88 -14 -111
7 -8 13 -32 12 -55 0 -35 6 -49 41 -91 23 -27 90 -123 149 -213 170 -262 198
-301 222 -310 28 -11 67 -3 84 18 29 36 12 75 -123 283 -73 113 -150 229 -171
258 -21 29 -33 52 -26 52 7 0 56 -11 108 -24 52 -13 140 -34 195 -46 55 -12
127 -28 160 -35 149 -34 173 -37 202 -23 50 24 47 106 -5 127 -25 10 -71 21
-237 56 -33 7 -103 22 -155 35 -52 12 -117 27 -144 34 -27 6 -49 15 -50 21 -1
8 134 93 194 122 8 4 71 40 140 82 69 41 170 98 225 128 55 30 106 62 113 71
18 24 15 76 -6 95 -43 39 -69 28 -488 -213z"/>
<path d="M1635 1668 c-27 -15 -35 -28 -35 -61 0 -36 36 -70 92 -86 171 -50
555 -197 736 -282 114 -54 147 -79 103 -79 -10 0 -133 -23 -272 -50 -140 -28
-321 -61 -404 -75 -395 -65 -405 -69 -405 -143 0 -46 30 -65 92 -59 65 6 421
68 618 107 80 15 183 36 230 45 47 9 93 18 103 21 9 3 17 2 17 -3 0 -13 -217
-289 -379 -482 -197 -235 -201 -240 -201 -276 0 -52 23 -70 86 -66 48 2 621
710 736 909 34 59 35 92 2 131 -42 50 -243 154 -489 254 -143 58 -571 207
-593 207 -9 0 -26 -6 -37 -12z"/>
<path d="M3595 1249 c-22 -4 -56 -8 -76 -8 l-37 -1 9 -41 c12 -51 70 -231 79
-244 4 -5 17 -39 30 -75 13 -36 29 -78 36 -95 7 -16 20 -48 29 -70 9 -22 30
-61 48 -87 37 -54 72 -64 96 -25 21 32 71 136 71 146 0 19 77 180 172 363 49
94 47 122 -10 137 -43 13 -388 13 -447 0z"/>
</g>
</svg>
